<svg xmlns="http://www.w3.org/2000/svg" width="900" height="520">
<rect width="100%" height="100%" fill="white"/>
<text x="450.0" y="28" text-anchor="middle" font-size="18" font-family="Segoe UI, Arial">Leaderboard runtime vs number of players (median of repeats)</text>
<line x1="80" y1="450" x2="870" y2="450" stroke="#111" stroke-width="2"/>
<line x1="80" y1="450" x2="80" y2="60" stroke="#111" stroke-width="2"/>
<line x1="80" y1="450.00" x2="870" y2="450.00" stroke="#eee"/>
<text x="70" y="454.00" text-anchor="end" font-size="12" font-family="Segoe UI, Arial" fill="#333">0.00</text>
<line x1="80" y1="372.00" x2="870" y2="372.00" stroke="#eee"/>
<text x="70" y="376.00" text-anchor="end" font-size="12" font-family="Segoe UI, Arial" fill="#333">0.01</text>
<line x1="80" y1="294.00" x2="870" y2="294.00" stroke="#eee"/>
<text x="70" y="298.00" text-anchor="end" font-size="12" font-family="Segoe UI, Arial" fill="#333">0.01</text>
<line x1="80" y1="216.00" x2="870" y2="216.00" stroke="#eee"/>
<text x="70" y="220.00" text-anchor="end" font-size="12" font-family="Segoe UI, Arial" fill="#333">0.02</text>
<line x1="80" y1="138.00" x2="870" y2="138.00" stroke="#eee"/>
<text x="70" y="142.00" text-anchor="end" font-size="12" font-family="Segoe UI, Arial" fill="#333">0.02</text>
<line x1="80" y1="60.00" x2="870" y2="60.00" stroke="#eee"/>
<text x="70" y="64.00" text-anchor="end" font-size="12" font-family="Segoe UI, Arial" fill="#333">0.03</text>
<line x1="80.00" y1="450" x2="80.00" y2="60" stroke="#f4f4f4"/>
<text x="80.00" y="468" text-anchor="middle" font-size="12" font-family="Segoe UI, Arial" fill="#333">8</text>
<line x1="192.86" y1="450" x2="192.86" y2="60" stroke="#f4f4f4"/>
<text x="192.86" y="468" text-anchor="middle" font-size="12" font-family="Segoe UI, Arial" fill="#333">35</text>
<line x1="305.71" y1="450" x2="305.71" y2="60" stroke="#f4f4f4"/>
<text x="305.71" y="468" text-anchor="middle" font-size="12" font-family="Segoe UI, Arial" fill="#333">63</text>
<line x1="418.57" y1="450" x2="418.57" y2="60" stroke="#f4f4f4"/>
<text x="418.57" y="468" text-anchor="middle" font-size="12" font-family="Segoe UI, Arial" fill="#333">90</text>
<line x1="531.43" y1="450" x2="531.43" y2="60" stroke="#f4f4f4"/>
<text x="531.43" y="468" text-anchor="middle" font-size="12" font-family="Segoe UI, Arial" fill="#333">118</text>
<line x1="644.29" y1="450" x2="644.29" y2="60" stroke="#f4f4f4"/>
<text x="644.29" y="468" text-anchor="middle" font-size="12" font-family="Segoe UI, Arial" fill="#333">145</text>
<line x1="757.14" y1="450" x2="757.14" y2="60" stroke="#f4f4f4"/>
<text x="757.14" y="468" text-anchor="middle" font-size="12" font-family="Segoe UI, Arial" fill="#333">173</text>
<line x1="870.00" y1="450" x2="870.00" y2="60" stroke="#f4f4f4"/>
<text x="870.00" y="468" text-anchor="middle" font-size="12" font-family="Segoe UI, Arial" fill="#333">200</text>
<text x="450.0" y="502" text-anchor="middle" font-size="14" font-family="Segoe UI, Arial">Players</text>
<text x="18" y="260.0" text-anchor="middle" font-size="14" font-family="Segoe UI, Arial" transform="rotate(-90 18 260.0)">Milliseconds (ms)</text>
<polyline fill="none" stroke="#0b5" stroke-width="3" points="80.00,428.32 112.92,414.39 178.75,389.62 310.42,333.88 442.08,276.60 573.75,216.22 705.42,163.58 870.00,95.45"/>
<circle cx="80.00" cy="428.32" r="4" fill="#0b5"/>
<circle cx="112.92" cy="414.39" r="4" fill="#0b5"/>
<circle cx="178.75" cy="389.62" r="4" fill="#0b5"/>
<circle cx="310.42" cy="333.88" r="4" fill="#0b5"/>
<circle cx="442.08" cy="276.60" r="4" fill="#0b5"/>
<circle cx="573.75" cy="216.22" r="4" fill="#0b5"/>
<circle cx="705.42" cy="163.58" r="4" fill="#0b5"/>
<circle cx="870.00" cy="95.45" r="4" fill="#0b5"/>
</svg>